<?xml version="1.0" encoding="UTF-8" standalone="no"?>
<!-- Created with Inkscape (http://www.inkscape.org/) -->

<svg
   width="210mm"
   height="297mm"
   viewBox="0 0 210 297"
   version="1.1"
   id="svg1"
   inkscape:version="1.3 (0e150ed6c4, 2023-07-21)"
   sodipodi:docname="logocerto.svg"
   inkscape:export-filename="logocerto.png"
   inkscape:export-xdpi="96"
   inkscape:export-ydpi="96"
   xmlns:inkscape="http://www.inkscape.org/namespaces/inkscape"
   xmlns:sodipodi="http://sodipodi.sourceforge.net/DTD/sodipodi-0.dtd"
   xmlns:xlink="http://www.w3.org/1999/xlink"
   xmlns="http://www.w3.org/2000/svg"
   xmlns:svg="http://www.w3.org/2000/svg">
  <sodipodi:namedview
     id="namedview1"
     pagecolor="#505050"
     bordercolor="#ffffff"
     borderopacity="1"
     inkscape:showpageshadow="0"
     inkscape:pageopacity="0"
     inkscape:pagecheckerboard="1"
     inkscape:deskcolor="#505050"
     inkscape:document-units="mm"
     inkscape:zoom="1.2428876"
     inkscape:cx="417.17369"
     inkscape:cy="678.66154"
     inkscape:window-width="1920"
     inkscape:window-height="974"
     inkscape:window-x="-11"
     inkscape:window-y="-11"
     inkscape:window-maximized="1"
     inkscape:current-layer="layer1"
     inkscape:export-bgcolor="#ffffff00" />
  <defs
     id="defs1">
    <linearGradient
       inkscape:collect="always"
       xlink:href="#linearGradient13"
       id="linearGradient11"
       gradientUnits="userSpaceOnUse"
       gradientTransform="matrix(0.90686003,0,0,0.90686003,-448.35938,-516.66066)"
       x1="328.60687"
       y1="384.08286"
       x2="469.21457"
       y2="384.08286" />
    <linearGradient
       id="linearGradient13"
       inkscape:collect="always">
      <stop
         style="stop-color:#72d6f0;stop-opacity:1;"
         offset="0.04185021"
         id="stop11" />
      <stop
         style="stop-color:#5086cc;stop-opacity:1;"
         offset="0.47136185"
         id="stop12" />
      <stop
         style="stop-color:#092b4e;stop-opacity:1;"
         offset="0.95374447"
         id="stop13" />
    </linearGradient>
  </defs>
  <g
     inkscape:label="Camada 1"
     inkscape:groupmode="layer"
     id="layer1">
    <path
       style="fill:url(#linearGradient11);fill-opacity:1;fill-rule:nonzero;stroke:#000000;stroke-width:1.882;stroke-linecap:butt;stroke-dasharray:none;stroke-opacity:1"
       id="path10"
       sodipodi:type="arc"
       sodipodi:cx="-86.603188"
       sodipodi:cy="-168.3513"
       sodipodi:rx="62.687462"
       sodipodi:ry="62.687462"
       sodipodi:start="6.2831353"
       sodipodi:end="6.2744217"
       sodipodi:open="true"
       sodipodi:arc-type="arc"
       d="m -23.915726,-168.35444 a 62.687462,62.687462 0 0 1 -62.547768,62.69044 62.687462,62.687462 0 0 1 -62.826546,-62.41105 62.687462,62.687462 0 0 1 62.274045,-62.96236 62.687462,62.687462 0 0 1 63.097862,62.13675"
       transform="rotate(171.87535)" />
    <path
       d="m 84.680123,93.321837 1.98307,5.92053 2.37872,7.102543 6.40074,19.10949 6.170877,18.1045 -38.098737,13.75574 c -7.31381,1.51102 -11.939685,-7.53976 -16.4414,-12.72467 l -2.5853,-2.97766 -6e-5,-5.1e-4 c -0.40714,-0.47325 -0.80604,-0.91798 -1.1969,-1.33621 l -6e-5,-5.2e-4 c -0.39085,-0.41824 -0.77423,-0.80945 -1.14876,-1.17466 l -6e-5,-5.2e-4 c -0.37454,-0.36519 -0.74144,-0.70419 -1.09967,-1.01842 l -1.1e-4,-0.001 c -0.35821,-0.31417 -0.70827,-0.60273 -1.05016,-0.86795 -0.34199,-0.26528 -0.67591,-0.50687 -1.00153,-0.72517 -0.32563,-0.21831 -0.64305,-0.41329 -0.95231,-0.58662 -0.30924,-0.17331 -0.61047,-0.32446 -0.90333,-0.45479 -0.29286,-0.13035 -0.57755,-0.2399 -0.854,-0.32927 -0.27646,-0.0894 -0.5447,-0.15849 -0.80474,-0.20892 -0.26001,-0.0505 -0.51211,-0.0818 -0.75569,-0.0953 -0.24359,-0.0134 -0.47808,-0.009 -0.70523,0.0125 -0.22715,0.0213 -0.44686,0.0598 -0.65756,0.11372 -0.21068,0.0543 -0.41264,0.12469 -0.60683,0.20998 -0.19416,0.0853 -0.3801,0.186 -0.55778,0.3002 -0.17768,0.11415 -0.34731,0.24253 -0.50847,0.38362 -0.16114,0.14109 -0.31372,0.29423 -0.45835,0.46021 -0.14451,0.16586 -0.28178,0.34357 -0.40977,0.53227 l 1.1e-4,9.9e-4 c -0.12796,0.18873 -0.24744,0.38776 -0.35886,0.59732 l 6e-5,5.1e-4 c -0.11141,0.20957 -0.21522,0.42904 -0.31007,0.65741 l 1.2e-4,0.001 c -0.0948,0.2284 -0.18111,0.46582 -0.25938,0.71103 l 6e-5,5.2e-4 c -0.0782,0.24524 -0.14881,0.49808 -0.21047,0.75811 l 6e-5,5.2e-4 c -0.0615,0.26001 -0.11554,0.52702 -0.16058,0.79987 l 1.1e-4,9.9e-4 c -0.0451,0.27287 -0.0815,0.55114 -0.10989,0.83479 l 5e-5,5.2e-4 c -0.0285,0.28365 -0.0484,0.5727 -0.0602,0.86515 l 6e-5,5.1e-4 c -0.0117,0.29245 -0.0153,0.58896 -0.0104,0.88819 l 6e-5,5.2e-4 c 0.005,0.29922 0.0179,0.6015 0.0394,0.90554 l 6e-5,5.1e-4 c 0.0215,0.30402 0.0512,0.60982 0.0895,0.9166 l 6e-5,5.1e-4 c 0.0392,0.30668 0.0855,0.6143 0.1405,0.92184 l 6e-5,5.2e-4 c 0.055,0.30754 0.11806,0.61527 0.18987,0.92154 l 6e-5,5.2e-4 c 0.0718,0.30629 0.15209,0.61184 0.24062,0.91486 l 6e-5,5.2e-4 c 0.0884,0.30303 0.18541,0.60374 0.2906,0.9015 l 6e-5,5.1e-4 c 0.10537,0.29774 0.21902,0.59241 0.34105,0.88289 l 1.1e-4,9.9e-4 4.65093,14.08436 6e-5,5.1e-4 1.28341,3.23066 6e-5,5.2e-4 5.22825,13.16064 1.1e-4,0.001 c 0.12534,0.3153 0.26421,0.62061 0.41593,0.91564 l 1.1e-4,9.9e-4 c 0.15182,0.29502 0.31652,0.5792 0.49268,0.85302 l 5e-5,5.2e-4 c 0.17617,0.27383 0.36391,0.53688 0.56246,0.78858 l 5e-5,5.2e-4 c 0.19857,0.2517 0.40777,0.49197 0.62665,0.7206 l 6e-5,5.2e-4 c 0.2189,0.22862 0.44869,0.44541 0.68587,0.65006 0.23733,0.20474 0.48296,0.39752 0.73654,0.57734 0.25359,0.1798 0.51478,0.34654 0.78259,0.50048 0.26779,0.15395 0.54168,0.29462 0.82165,0.42177 0.27997,0.12714 0.56617,0.24102 0.85628,0.34045 0.29009,0.0994 0.58451,0.18458 0.8827,0.25535 1.833332,0.43531 3.761265,0.30269 5.52795,-0.39901 17.901749,-5.7543 37.044557,-12.99345 55.224217,-19.55714 l 6.64435,18.71946 5.19803,14.40305 5.1e-4,-5e-5 4.46115,12.36 1.94092,5.37821 c 0.53924,-0.0939 1.04558,-0.22648 1.52095,-0.39644 0.47538,-0.16999 0.91975,-0.37715 1.33447,-0.61903 0.41475,-0.24186 0.79994,-0.51913 1.15726,-0.82863 0.35731,-0.30948 0.68679,-0.65139 0.9899,-1.02421 0.30312,-0.37284 0.58005,-0.776 0.8322,-1.2079 0.25212,-0.43189 0.47975,-0.89295 0.68414,-1.37964 0.20437,-0.48671 0.3852,-0.99904 0.54504,-1.53628 0.15983,-0.53722 0.29794,-1.09911 0.41645,-1.68262 0.007,-0.0336 0.0102,-0.0707 0.017,-0.10432 0.10957,-0.55234 0.20499,-1.12065 0.2808,-1.71017 0.0804,-0.62549 0.14271,-1.27115 0.18826,-1.93438 0.0911,-1.32646 0.11616,-2.7238 0.0871,-4.17555 -0.0291,-1.45175 -0.11208,-2.9576 -0.23557,-4.50051 -0.0115,-0.1485 -0.0335,-0.30538 -0.0456,-0.45457 -0.11862,-1.40075 -0.26,-2.8224 -0.43386,-4.26837 -0.1921,-1.59993 -0.41238,-3.21976 -0.64748,-4.84256 -0.23499,-1.62277 -0.48468,-3.24867 -0.73679,-4.86017 -0.50421,-3.22303 -1.0168,-6.38976 -1.43482,-9.36278 -0.20896,-1.48652 -0.39481,-2.92445 -0.54363,-4.29724 -0.14872,-1.37279 -0.26089,-2.68029 -0.32376,-3.90522 -0.0628,-1.22493 -0.0763,-2.36753 -0.0274,-3.41044 0.0245,-0.52147 0.0649,-1.01759 0.12207,-1.48713 0.0374,-0.30661 0.094,-0.58294 0.14647,-0.8659 l 38.47166,-13.8903 c 0.49585,-0.17903 0.97756,-0.37451 1.44525,-0.58612 0.46768,-0.21162 0.92146,-0.43905 1.35935,-0.68056 0.43791,-0.24153 0.86019,-0.49714 1.26666,-0.76592 0.40646,-0.26875 0.79669,-0.55073 1.17009,-0.84409 0.37339,-0.29335 0.72953,-0.59859 1.06821,-0.91386 0.33868,-0.31528 0.66032,-0.6404 0.96263,-0.9749 0.30233,-0.33452 0.58569,-0.67785 0.85003,-1.02894 0.26433,-0.35109 0.50948,-0.70979 0.73418,-1.0748 0.22468,-0.36501 0.42899,-0.73697 0.61239,-1.11324 0.18341,-0.37626 0.34594,-0.75755 0.48644,-1.14239 0.14047,-0.38485 0.25867,-0.77282 0.35461,-1.16359 0.0959,-0.39075 0.16965,-0.78418 0.21936,-1.17818 0.0497,-0.39401 0.0754,-0.78911 0.0773,-1.1837 0.002,-0.39462 -0.0204,-0.78853 -0.068,-1.18104 -0.0477,-0.3925 -0.11995,-0.78327 -0.21874,-1.17104 -0.0988,-0.38776 -0.22377,-0.77274 -0.37527,-1.1531 -0.15154,-0.38035 -0.32606,-0.74722 -0.52221,-1.09982 -0.19617,-0.35258 -0.41436,-0.69081 -0.6521,-1.01468 -0.23775,-0.32387 -0.4946,-0.63344 -0.77082,-0.92762 -0.27624,-0.29417 -0.57127,-0.57309 -0.8829,-0.83664 -0.31166,-0.26353 -0.64035,-0.51127 -0.9843,-0.74321 -0.34397,-0.23194 -0.70341,-0.44828 -1.07661,-0.64766 -0.37319,-0.19938 -0.76028,-0.38209 -1.15963,-0.54795 -0.39934,-0.16585 -0.81065,-0.31482 -1.23306,-0.4462 -0.4224,-0.13136 -0.85594,-0.24524 -1.29832,-0.34118 -0.44238,-0.0959 -0.89415,-0.17412 -1.35344,-0.23366 -0.45927,-0.0595 -0.92571,-0.10035 -1.39879,-0.12253 -0.47309,-0.0222 -0.95285,-0.0258 -1.43667,-0.01 -0.48381,0.0161 -0.97224,0.0518 -1.4637,0.10722 -0.49143,0.0554 -0.98559,0.13109 -1.48159,0.22673 -0.006,10e-4 -0.0115,0.003 -0.0173,0.004 -0.49029,0.095 -0.98199,0.20918 -1.47371,0.3444 -0.49746,0.13685 -0.9952,0.29469 -1.49103,0.47371 l -17.1766,6.20179 -20.99262,7.57946 c -0.21208,-0.22296 -0.42297,-0.43704 -0.63761,-0.68352 -0.68559,-0.78739 -1.3843,-1.6911 -2.09527,-2.69056 -0.71098,-0.99946 -1.43451,-2.0938 -2.16985,-3.26254 -0.73533,-1.16873 -1.48298,-2.41214 -2.2417,-3.70742 -1.51745,-2.59054 -3.07999,-5.39155 -4.68502,-8.23162 -0.80253,-1.42002 -1.61631,-2.84953 -2.43924,-4.26779 -0.82294,-1.41825 -1.65526,-2.82519 -2.4976,-4.1989 -0.84237,-1.37374 -1.69438,-2.71473 -2.55516,-4.00116 -0.43454,-0.6494 -0.87807,-1.23634 -1.31705,-1.85528 -0.43062,-0.60714 -0.85687,-1.24701 -1.29175,-1.81961 -0.87824,-1.156353 -1.764947,-2.237013 -2.659647,-3.220523 -0.44734,-0.49175 -0.89669,-0.95896 -1.34796,-1.39949 -0.45127,-0.44052 -0.90404,-0.85414 -1.35913,-1.23808 -0.45508,-0.38396 -0.91234,-0.73847 -1.37108,-1.06051 -0.45875,-0.32203 -0.91947,-0.61216 -1.38178,-0.86692 -0.46232,-0.25477 -0.92639,-0.47407 -1.39214,-0.65624 -0.46574,-0.18214 -0.93338,-0.32677 -1.40242,-0.43098 -0.46907,-0.1042 -0.93968,-0.16829 -1.41194,-0.18919 -0.827803,-0.02472 -2.251474,0.532696 -4.20062,1.31604 z"
       style="fill:#fdfeff;fill-opacity:1;stroke:#000000;stroke-width:1.882;stroke-dasharray:none;stroke-opacity:1"
       id="path11"
       sodipodi:nodetypes="cccccccccccccccsssssccccscssccccccccccccccccccssssccccccccccccccccccccccccsssssscccccccsssssssccsssccccscccccccssssssssssssccssssssssssssscscccccccsssssssssssssssscc" />
  </g>
</svg>
